<?xml version="1.0" encoding="us-ascii" standalone="no"?><svg xmlns="http://www.w3.org/2000/svg" xmlns:xlink="http://www.w3.org/1999/xlink" contentStyleType="text/css" height="2194px" preserveAspectRatio="none" style="width:1092px;height:2194px;background:#FFFFFF;" version="1.1" viewBox="0 0 1092 2194" width="1092px" zoomAndPan="magnify"><defs/><g><rect fill="#FFFFFF" height="247.0371" style="stroke:#181818;stroke-width:1.0;" width="10" x="244" y="1532.6387"/><rect fill="none" height="488.9961" style="stroke:#000000;stroke-width:1.5;" width="1027" x="59" y="225.0762"/><rect fill="none" height="129.7949" style="stroke:#000000;stroke-width:1.5;" width="249.5" x="759" y="532.9863"/><rect fill="none" height="50.582" style="stroke:#000000;stroke-width:1.5;" width="226" x="59" y="853.2363"/><rect fill="none" height="113.1641" style="stroke:#000000;stroke-width:1.5;" width="625" x="383.5" y="949.1094"/><rect fill="none" height="50.582" style="stroke:#000000;stroke-width:1.5;" width="249.5" x="759" y="1357.8926"/><rect fill="none" height="50.582" style="stroke:#000000;stroke-width:1.5;" width="226" x="59" y="1698.8027"/><rect fill="none" height="313.9102" style="stroke:#000000;stroke-width:1.5;" width="702.5" x="383.5" y="1825.9668"/><line style="stroke:#181818;stroke-width:0.5;stroke-dasharray:5.0,5.0;" x1="32" x2="32" y1="38.6211" y2="2156.877"/><line style="stroke:#181818;stroke-width:0.5;stroke-dasharray:5.0,5.0;" x1="95" x2="95" y1="38.6211" y2="2156.877"/><line style="stroke:#181818;stroke-width:0.5;stroke-dasharray:5.0,5.0;" x1="249" x2="249" y1="38.6211" y2="2156.877"/><line style="stroke:#181818;stroke-width:0.5;stroke-dasharray:5.0,5.0;" x1="442.5" x2="442.5" y1="38.6211" y2="2156.877"/><line style="stroke:#181818;stroke-width:0.5;stroke-dasharray:5.0,5.0;" x1="613" x2="613" y1="38.6211" y2="2156.877"/><line style="stroke:#181818;stroke-width:0.5;stroke-dasharray:5.0,5.0;" x1="825" x2="825" y1="38.6211" y2="2156.877"/><line style="stroke:#181818;stroke-width:0.5;stroke-dasharray:5.0,5.0;" x1="976.5" x2="976.5" y1="38.6211" y2="2156.877"/><rect fill="#E2E2F0" height="32.6211" rx="2.5" ry="2.5" style="stroke:#181818;stroke-width:0.5;" width="54" x="5" y="5"/><text fill="#000000" font-family="sans-serif" font-size="14" lengthAdjust="spacing" textLength="40" x="12" y="27.1074">Player</text><rect fill="#E2E2F0" height="32.6211" rx="2.5" ry="2.5" style="stroke:#181818;stroke-width:0.5;" width="54" x="5" y="2155.877"/><text fill="#000000" font-family="sans-serif" font-size="14" lengthAdjust="spacing" textLength="40" x="12" y="2177.9844">Player</text><rect fill="#E2E2F0" height="32.6211" rx="2.5" ry="2.5" style="stroke:#181818;stroke-width:0.5;" width="52" x="69" y="5"/><text fill="#000000" font-family="sans-serif" font-size="14" lengthAdjust="spacing" textLength="38" x="76" y="27.1074">Board</text><rect fill="#E2E2F0" height="32.6211" rx="2.5" ry="2.5" style="stroke:#181818;stroke-width:0.5;" width="52" x="69" y="2155.877"/><text fill="#000000" font-family="sans-serif" font-size="14" lengthAdjust="spacing" textLength="38" x="76" y="2177.9844">Board</text><rect fill="#E2E2F0" height="32.6211" rx="2.5" ry="2.5" style="stroke:#181818;stroke-width:0.5;" width="52" x="223" y="5"/><text fill="#000000" font-family="sans-serif" font-size="14" lengthAdjust="spacing" textLength="38" x="230" y="27.1074">Game</text><rect fill="#E2E2F0" height="32.6211" rx="2.5" ry="2.5" style="stroke:#181818;stroke-width:0.5;" width="52" x="223" y="2155.877"/><text fill="#000000" font-family="sans-serif" font-size="14" lengthAdjust="spacing" textLength="38" x="230" y="2177.9844">Game</text><rect fill="#E2E2F0" height="32.6211" rx="2.5" ry="2.5" style="stroke:#181818;stroke-width:0.5;" width="99" x="393.5" y="5"/><text fill="#000000" font-family="sans-serif" font-size="14" lengthAdjust="spacing" textLength="85" x="400.5" y="27.1074">ClientHandler</text><rect fill="#E2E2F0" height="32.6211" rx="2.5" ry="2.5" style="stroke:#181818;stroke-width:0.5;" width="99" x="393.5" y="2155.877"/><text fill="#000000" font-family="sans-serif" font-size="14" lengthAdjust="spacing" textLength="85" x="400.5" y="2177.9844">ClientHandler</text><rect fill="#E2E2F0" height="32.6211" rx="2.5" ry="2.5" style="stroke:#181818;stroke-width:0.5;" width="50" x="588" y="5"/><text fill="#000000" font-family="sans-serif" font-size="14" lengthAdjust="spacing" textLength="36" x="595" y="27.1074">Client</text><rect fill="#E2E2F0" height="32.6211" rx="2.5" ry="2.5" style="stroke:#181818;stroke-width:0.5;" width="50" x="588" y="2155.877"/><text fill="#000000" font-family="sans-serif" font-size="14" lengthAdjust="spacing" textLength="36" x="595" y="2177.9844">Client</text><rect fill="#E2E2F0" height="32.6211" rx="2.5" ry="2.5" style="stroke:#181818;stroke-width:0.5;" width="112" x="769" y="5"/><text fill="#000000" font-family="sans-serif" font-size="14" lengthAdjust="spacing" textLength="98" x="776" y="27.1074">ClientController</text><rect fill="#E2E2F0" height="32.6211" rx="2.5" ry="2.5" style="stroke:#181818;stroke-width:0.5;" width="112" x="769" y="2155.877"/><text fill="#000000" font-family="sans-serif" font-size="14" lengthAdjust="spacing" textLength="98" x="776" y="2177.9844">ClientController</text><rect fill="#E2E2F0" height="32.6211" rx="2.5" ry="2.5" style="stroke:#181818;stroke-width:0.5;" width="43" x="955.5" y="5"/><text fill="#000000" font-family="sans-serif" font-size="14" lengthAdjust="spacing" textLength="29" x="962.5" y="27.1074">View</text><rect fill="#E2E2F0" height="32.6211" rx="2.5" ry="2.5" style="stroke:#181818;stroke-width:0.5;" width="43" x="955.5" y="2155.877"/><text fill="#000000" font-family="sans-serif" font-size="14" lengthAdjust="spacing" textLength="29" x="962.5" y="2177.9844">View</text><rect fill="#FFFFFF" height="247.0371" style="stroke:#181818;stroke-width:1.0;" width="10" x="244" y="1532.6387"/><polygon fill="#181818" points="601,67.9121,611,71.9121,601,75.9121,605,71.9121" style="stroke:#181818;stroke-width:1.0;"/><line style="stroke:#181818;stroke-width:1.0;" x1="443" x2="607" y1="71.9121" y2="71.9121"/><text fill="#000000" font-family="sans-serif" font-size="13" lengthAdjust="spacing" textLength="96" x="450" y="66.6494">GameStartNotify</text><polygon fill="#181818" points="813,99.2031,823,103.2031,813,107.2031,817,103.2031" style="stroke:#181818;stroke-width:1.0;"/><line style="stroke:#181818;stroke-width:1.0;" x1="613" x2="819" y1="103.2031" y2="103.2031"/><text fill="#000000" font-family="sans-serif" font-size="13" lengthAdjust="spacing" textLength="138" x="620" y="97.9404">handle GameStartNotify</text><polygon fill="#181818" points="965,130.4941,975,134.4941,965,138.4941,969,134.4941" style="stroke:#181818;stroke-width:1.0;"/><line style="stroke:#181818;stroke-width:1.0;" x1="825" x2="971" y1="134.4941" y2="134.4941"/><text fill="#000000" font-family="sans-serif" font-size="13" lengthAdjust="spacing" textLength="64" x="832" y="129.2314">set players</text><polygon fill="#181818" points="965,161.7852,975,165.7852,965,169.7852,969,165.7852" style="stroke:#181818;stroke-width:1.0;"/><line style="stroke:#181818;stroke-width:1.0;" x1="825" x2="971" y1="165.7852" y2="165.7852"/><text fill="#000000" font-family="sans-serif" font-size="13" lengthAdjust="spacing" textLength="62" x="832" y="160.5225">start game</text><line style="stroke:#181818;stroke-width:1.0;" x1="977" x2="1019" y1="197.0762" y2="197.0762"/><line style="stroke:#181818;stroke-width:1.0;" x1="1019" x2="1019" y1="197.0762" y2="210.0762"/><line style="stroke:#181818;stroke-width:1.0;" x1="978" x2="1019" y1="210.0762" y2="210.0762"/><polygon fill="#181818" points="988,206.0762,978,210.0762,988,214.0762,984,210.0762" style="stroke:#181818;stroke-width:1.0;"/><text fill="#000000" font-family="sans-serif" font-size="13" lengthAdjust="spacing" textLength="90" x="984" y="191.8135">show pick a tile</text><path d="M59,225.0762 L132,225.0762 L132,234.3672 L122,244.3672 L59,244.3672 L59,225.0762 " fill="#EEEEEE" style="stroke:#000000;stroke-width:1.5;"/><rect fill="none" height="488.9961" style="stroke:#000000;stroke-width:1.5;" width="1027" x="59" y="225.0762"/><text fill="#000000" font-family="sans-serif" font-size="13" font-weight="bold" lengthAdjust="spacing" textLength="28" x="74" y="240.1045">loop</text><polygon fill="#181818" points="836,263.6582,826,267.6582,836,271.6582,832,267.6582" style="stroke:#181818;stroke-width:1.0;"/><line style="stroke:#181818;stroke-width:1.0;" x1="830" x2="976" y1="267.6582" y2="267.6582"/><text fill="#000000" font-family="sans-serif" font-size="13" lengthAdjust="spacing" textLength="59" x="842" y="262.3955">picked tile</text><polygon fill="#181818" points="624,294.9492,614,298.9492,624,302.9492,620,298.9492" style="stroke:#181818;stroke-width:1.0;"/><line style="stroke:#181818;stroke-width:1.0;" x1="618" x2="824" y1="298.9492" y2="298.9492"/><text fill="#000000" font-family="sans-serif" font-size="13" lengthAdjust="spacing" textLength="126" x="630" y="293.6865">send PickTileRequest</text><polygon fill="#181818" points="454,326.2402,444,330.2402,454,334.2402,450,330.2402" style="stroke:#181818;stroke-width:1.0;"/><line style="stroke:#181818;stroke-width:1.0;" x1="448" x2="612" y1="330.2402" y2="330.2402"/><text fill="#000000" font-family="sans-serif" font-size="13" lengthAdjust="spacing" textLength="94" x="460" y="324.9775">PickTileRequest</text><polygon fill="#181818" points="260,357.5313,250,361.5313,260,365.5313,256,361.5313" style="stroke:#181818;stroke-width:1.0;"/><line style="stroke:#181818;stroke-width:1.0;" x1="254" x2="442" y1="361.5313" y2="361.5313"/><text fill="#000000" font-family="sans-serif" font-size="13" lengthAdjust="spacing" textLength="45" x="266" y="356.2686">pick tile</text><polygon fill="#181818" points="106,388.8223,96,392.8223,106,396.8223,102,392.8223" style="stroke:#181818;stroke-width:1.0;"/><line style="stroke:#181818;stroke-width:1.0;" x1="100" x2="248" y1="392.8223" y2="392.8223"/><text fill="#000000" font-family="sans-serif" font-size="13" lengthAdjust="spacing" textLength="39" x="112" y="387.5596">get tile</text><polygon fill="#181818" points="237,420.1133,247,424.1133,237,428.1133,241,424.1133" style="stroke:#181818;stroke-width:1.0;"/><line style="stroke:#181818;stroke-width:1.0;" x1="95" x2="243" y1="424.1133" y2="424.1133"/><text fill="#000000" font-family="sans-serif" font-size="13" lengthAdjust="spacing" textLength="17" x="102" y="418.8506">tile</text><polygon fill="#181818" points="431,451.4043,441,455.4043,431,459.4043,435,455.4043" style="stroke:#181818;stroke-width:1.0;"/><line style="stroke:#181818;stroke-width:1.0;" x1="249" x2="437" y1="455.4043" y2="455.4043"/><text fill="#000000" font-family="sans-serif" font-size="13" lengthAdjust="spacing" textLength="53" x="256" y="450.1416">valid pick</text><polygon fill="#181818" points="601,482.6953,611,486.6953,601,490.6953,605,486.6953" style="stroke:#181818;stroke-width:1.0;"/><line style="stroke:#181818;stroke-width:1.0;" x1="443" x2="607" y1="486.6953" y2="486.6953"/><text fill="#000000" font-family="sans-serif" font-size="13" lengthAdjust="spacing" textLength="104" x="450" y="481.4326">PickTileResponse</text><polygon fill="#181818" points="813,513.9863,823,517.9863,813,521.9863,817,517.9863" style="stroke:#181818;stroke-width:1.0;"/><line style="stroke:#181818;stroke-width:1.0;" x1="613" x2="819" y1="517.9863" y2="517.9863"/><text fill="#000000" font-family="sans-serif" font-size="13" lengthAdjust="spacing" textLength="146" x="620" y="512.7236">handle PickTileResponse</text><path d="M759,532.9863 L820,532.9863 L820,542.2773 L810,552.2773 L759,552.2773 L759,532.9863 " fill="#EEEEEE" style="stroke:#000000;stroke-width:1.5;"/><rect fill="none" height="129.7949" style="stroke:#000000;stroke-width:1.5;" width="249.5" x="759" y="532.9863"/><text fill="#000000" font-family="sans-serif" font-size="13" font-weight="bold" lengthAdjust="spacing" textLength="16" x="774" y="548.0146">alt</text><text fill="#000000" font-family="sans-serif" font-size="11" font-weight="bold" lengthAdjust="spacing" textLength="72" x="835" y="546.8564">[pick is valid]</text><polygon fill="#181818" points="965,571.5684,975,575.5684,965,579.5684,969,575.5684" style="stroke:#181818;stroke-width:1.0;"/><line style="stroke:#181818;stroke-width:1.0;" x1="825" x2="971" y1="575.5684" y2="575.5684"/><text fill="#000000" font-family="sans-serif" font-size="13" lengthAdjust="spacing" textLength="87" x="832" y="570.3057">show valid pick</text><polygon fill="#181818" points="965,602.8594,975,606.8594,965,610.8594,969,606.8594" style="stroke:#181818;stroke-width:1.0;"/><line style="stroke:#181818;stroke-width:1.0;" x1="825" x2="971" y1="606.8594" y2="606.8594"/><text fill="#000000" font-family="sans-serif" font-size="13" lengthAdjust="spacing" textLength="109" x="832" y="601.5967">update picked tiles</text><line style="stroke:#000000;stroke-width:1.0;stroke-dasharray:2.0,2.0;" x1="759" x2="1008.5" y1="615.8594" y2="615.8594"/><text fill="#000000" font-family="sans-serif" font-size="11" font-weight="bold" lengthAdjust="spacing" textLength="93" x="764" y="627.7295">[pick is not valid]</text><polygon fill="#181818" points="965,650.7813,975,654.7813,965,658.7813,969,654.7813" style="stroke:#181818;stroke-width:1.0;"/><line style="stroke:#181818;stroke-width:1.0;" x1="825" x2="971" y1="654.7813" y2="654.7813"/><text fill="#000000" font-family="sans-serif" font-size="13" lengthAdjust="spacing" textLength="97" x="832" y="649.5186">show invalid pick</text><line style="stroke:#181818;stroke-width:1.0;" x1="977" x2="1019" y1="693.0723" y2="693.0723"/><line style="stroke:#181818;stroke-width:1.0;" x1="1019" x2="1019" y1="693.0723" y2="706.0723"/><line style="stroke:#181818;stroke-width:1.0;" x1="978" x2="1019" y1="706.0723" y2="706.0723"/><polygon fill="#181818" points="988,702.0723,978,706.0723,988,710.0723,984,706.0723" style="stroke:#181818;stroke-width:1.0;"/><text fill="#000000" font-family="sans-serif" font-size="13" lengthAdjust="spacing" textLength="90" x="984" y="687.8096">show pick a tile</text><polygon fill="#181818" points="836,740.3633,826,744.3633,836,748.3633,832,744.3633" style="stroke:#181818;stroke-width:1.0;"/><line style="stroke:#181818;stroke-width:1.0;" x1="830" x2="976" y1="744.3633" y2="744.3633"/><text fill="#000000" font-family="sans-serif" font-size="13" lengthAdjust="spacing" textLength="112" x="842" y="739.1006">confirm picked tiles</text><polygon fill="#181818" points="624,771.6543,614,775.6543,624,779.6543,620,775.6543" style="stroke:#181818;stroke-width:1.0;"/><line style="stroke:#181818;stroke-width:1.0;" x1="618" x2="824" y1="775.6543" y2="775.6543"/><text fill="#000000" font-family="sans-serif" font-size="13" lengthAdjust="spacing" textLength="150" x="630" y="770.3916">send ConfirmPickRequest</text><polygon fill="#181818" points="454,802.9453,444,806.9453,454,810.9453,450,806.9453" style="stroke:#181818;stroke-width:1.0;"/><line style="stroke:#181818;stroke-width:1.0;" x1="448" x2="612" y1="806.9453" y2="806.9453"/><text fill="#000000" font-family="sans-serif" font-size="13" lengthAdjust="spacing" textLength="118" x="460" y="801.6826">ConfirmPickRequest</text><polygon fill="#181818" points="260,834.2363,250,838.2363,260,842.2363,256,838.2363" style="stroke:#181818;stroke-width:1.0;"/><line style="stroke:#181818;stroke-width:1.0;" x1="254" x2="442" y1="838.2363" y2="838.2363"/><text fill="#000000" font-family="sans-serif" font-size="13" lengthAdjust="spacing" textLength="112" x="266" y="832.9736">confirm picked tiles</text><path d="M59,853.2363 L132,853.2363 L132,862.5273 L122,872.5273 L59,872.5273 L59,853.2363 " fill="#EEEEEE" style="stroke:#000000;stroke-width:1.5;"/><rect fill="none" height="50.582" style="stroke:#000000;stroke-width:1.5;" width="226" x="59" y="853.2363"/><text fill="#000000" font-family="sans-serif" font-size="13" font-weight="bold" lengthAdjust="spacing" textLength="28" x="74" y="868.2646">loop</text><text fill="#000000" font-family="sans-serif" font-size="11" font-weight="bold" lengthAdjust="spacing" textLength="106" x="147" y="867.1064">[for all picked tiles]</text><polygon fill="#181818" points="106,891.8184,96,895.8184,106,899.8184,102,895.8184" style="stroke:#181818;stroke-width:1.0;"/><line style="stroke:#181818;stroke-width:1.0;" x1="100" x2="248" y1="895.8184" y2="895.8184"/><text fill="#000000" font-family="sans-serif" font-size="13" lengthAdjust="spacing" textLength="106" x="112" y="890.5557">remove from board</text><polygon fill="#181818" points="431,930.1094,441,934.1094,431,938.1094,435,934.1094" style="stroke:#181818;stroke-width:1.0;"/><line style="stroke:#181818;stroke-width:1.0;" x1="249" x2="437" y1="934.1094" y2="934.1094"/><text fill="#000000" font-family="sans-serif" font-size="13" lengthAdjust="spacing" textLength="95" x="256" y="928.8467">valid picked tiles</text><path d="M383.5,949.1094 L456.5,949.1094 L456.5,958.4004 L446.5,968.4004 L383.5,968.4004 L383.5,949.1094 " fill="#EEEEEE" style="stroke:#000000;stroke-width:1.5;"/><rect fill="none" height="113.1641" style="stroke:#000000;stroke-width:1.5;" width="625" x="383.5" y="949.1094"/><text fill="#000000" font-family="sans-serif" font-size="13" font-weight="bold" lengthAdjust="spacing" textLength="28" x="398.5" y="964.1377">loop</text><text fill="#000000" font-family="sans-serif" font-size="11" font-weight="bold" lengthAdjust="spacing" textLength="78" x="471.5" y="962.9795">[to all players]</text><polygon fill="#181818" points="601,987.6914,611,991.6914,601,995.6914,605,991.6914" style="stroke:#181818;stroke-width:1.0;"/><line style="stroke:#181818;stroke-width:1.0;" x1="443" x2="607" y1="991.6914" y2="991.6914"/><text fill="#000000" font-family="sans-serif" font-size="13" lengthAdjust="spacing" textLength="128" x="450" y="986.4287">ConfirmPickResponse</text><polygon fill="#181818" points="813,1018.9824,823,1022.9824,813,1026.9824,817,1022.9824" style="stroke:#181818;stroke-width:1.0;"/><line style="stroke:#181818;stroke-width:1.0;" x1="613" x2="819" y1="1022.9824" y2="1022.9824"/><text fill="#000000" font-family="sans-serif" font-size="13" lengthAdjust="spacing" textLength="170" x="620" y="1017.7197">handle ConfirmPickResponse</text><polygon fill="#181818" points="965,1050.2734,975,1054.2734,965,1058.2734,969,1054.2734" style="stroke:#181818;stroke-width:1.0;"/><line style="stroke:#181818;stroke-width:1.0;" x1="825" x2="971" y1="1054.2734" y2="1054.2734"/><text fill="#000000" font-family="sans-serif" font-size="13" lengthAdjust="spacing" textLength="75" x="832" y="1049.0107">update board</text><polygon fill="#181818" points="965,1088.5645,975,1092.5645,965,1096.5645,969,1092.5645" style="stroke:#181818;stroke-width:1.0;"/><line style="stroke:#181818;stroke-width:1.0;" x1="825" x2="971" y1="1092.5645" y2="1092.5645"/><text fill="#000000" font-family="sans-serif" font-size="13" lengthAdjust="spacing" textLength="122" x="832" y="1087.3018">show choose column</text><polygon fill="#181818" points="836,1119.8555,826,1123.8555,836,1127.8555,832,1123.8555" style="stroke:#181818;stroke-width:1.0;"/><line style="stroke:#181818;stroke-width:1.0;" x1="830" x2="976" y1="1123.8555" y2="1123.8555"/><text fill="#000000" font-family="sans-serif" font-size="13" lengthAdjust="spacing" textLength="88" x="842" y="1118.5928">chosen column</text><polygon fill="#181818" points="624,1151.1465,614,1155.1465,624,1159.1465,620,1155.1465" style="stroke:#181818;stroke-width:1.0;"/><line style="stroke:#181818;stroke-width:1.0;" x1="618" x2="824" y1="1155.1465" y2="1155.1465"/><text fill="#000000" font-family="sans-serif" font-size="13" lengthAdjust="spacing" textLength="168" x="630" y="1149.8838">send ConfirmColumnRequest</text><polygon fill="#181818" points="454,1182.4375,444,1186.4375,454,1190.4375,450,1186.4375" style="stroke:#181818;stroke-width:1.0;"/><line style="stroke:#181818;stroke-width:1.0;" x1="448" x2="612" y1="1186.4375" y2="1186.4375"/><text fill="#000000" font-family="sans-serif" font-size="13" lengthAdjust="spacing" textLength="136" x="460" y="1181.1748">ConfirmColumnRequest</text><polygon fill="#181818" points="260,1213.7285,250,1217.7285,260,1221.7285,256,1217.7285" style="stroke:#181818;stroke-width:1.0;"/><line style="stroke:#181818;stroke-width:1.0;" x1="254" x2="442" y1="1217.7285" y2="1217.7285"/><text fill="#000000" font-family="sans-serif" font-size="13" lengthAdjust="spacing" textLength="88" x="266" y="1212.4658">confirm column</text><polygon fill="#181818" points="431,1245.0195,441,1249.0195,431,1253.0195,435,1249.0195" style="stroke:#181818;stroke-width:1.0;"/><line style="stroke:#181818;stroke-width:1.0;" x1="249" x2="437" y1="1249.0195" y2="1249.0195"/><text fill="#000000" font-family="sans-serif" font-size="13" lengthAdjust="spacing" textLength="71" x="256" y="1243.7568">valid column</text><polygon fill="#181818" points="601,1276.3105,611,1280.3105,601,1284.3105,605,1280.3105" style="stroke:#181818;stroke-width:1.0;"/><line style="stroke:#181818;stroke-width:1.0;" x1="443" x2="607" y1="1280.3105" y2="1280.3105"/><text fill="#000000" font-family="sans-serif" font-size="13" lengthAdjust="spacing" textLength="146" x="450" y="1275.0479">ConfirmColumnResponse</text><polygon fill="#181818" points="813,1307.6016,823,1311.6016,813,1315.6016,817,1311.6016" style="stroke:#181818;stroke-width:1.0;"/><line style="stroke:#181818;stroke-width:1.0;" x1="613" x2="819" y1="1311.6016" y2="1311.6016"/><text fill="#000000" font-family="sans-serif" font-size="13" lengthAdjust="spacing" textLength="188" x="620" y="1306.3389">handle ConfirmColumnResponse</text><polygon fill="#181818" points="965,1338.8926,975,1342.8926,965,1346.8926,969,1342.8926" style="stroke:#181818;stroke-width:1.0;"/><line style="stroke:#181818;stroke-width:1.0;" x1="825" x2="971" y1="1342.8926" y2="1342.8926"/><text fill="#000000" font-family="sans-serif" font-size="13" lengthAdjust="spacing" textLength="105" x="832" y="1337.6299">show valid column</text><path d="M759,1357.8926 L820,1357.8926 L820,1367.1836 L810,1377.1836 L759,1377.1836 L759,1357.8926 " fill="#EEEEEE" style="stroke:#000000;stroke-width:1.5;"/><rect fill="none" height="50.582" style="stroke:#000000;stroke-width:1.5;" width="249.5" x="759" y="1357.8926"/><text fill="#000000" font-family="sans-serif" font-size="13" font-weight="bold" lengthAdjust="spacing" textLength="16" x="774" y="1372.9209">alt</text><text fill="#000000" font-family="sans-serif" font-size="11" font-weight="bold" lengthAdjust="spacing" textLength="102" x="835" y="1371.7627">[swap is possible]</text><polygon fill="#181818" points="965,1396.4746,975,1400.4746,965,1404.4746,969,1400.4746" style="stroke:#181818;stroke-width:1.0;"/><line style="stroke:#181818;stroke-width:1.0;" x1="825" x2="971" y1="1400.4746" y2="1400.4746"/><text fill="#000000" font-family="sans-serif" font-size="13" lengthAdjust="spacing" textLength="125" x="832" y="1395.2119">show swap tiles order</text><polygon fill="#181818" points="836,1434.7656,826,1438.7656,836,1442.7656,832,1438.7656" style="stroke:#181818;stroke-width:1.0;"/><line style="stroke:#181818;stroke-width:1.0;" x1="830" x2="976" y1="1438.7656" y2="1438.7656"/><text fill="#000000" font-family="sans-serif" font-size="13" lengthAdjust="spacing" textLength="57" x="842" y="1433.5029">tiles order</text><polygon fill="#181818" points="624,1466.0566,614,1470.0566,624,1474.0566,620,1470.0566" style="stroke:#181818;stroke-width:1.0;"/><line style="stroke:#181818;stroke-width:1.0;" x1="618" x2="824" y1="1470.0566" y2="1470.0566"/><text fill="#000000" font-family="sans-serif" font-size="13" lengthAdjust="spacing" textLength="141" x="630" y="1464.7939">send ConfirmOrderNotify</text><polygon fill="#181818" points="454,1497.3477,444,1501.3477,454,1505.3477,450,1501.3477" style="stroke:#181818;stroke-width:1.0;"/><line style="stroke:#181818;stroke-width:1.0;" x1="448" x2="612" y1="1501.3477" y2="1501.3477"/><text fill="#000000" font-family="sans-serif" font-size="13" lengthAdjust="spacing" textLength="109" x="460" y="1496.085">ConfirmOrderNotify</text><polygon fill="#181818" points="265,1528.6387,255,1532.6387,265,1536.6387,261,1532.6387" style="stroke:#181818;stroke-width:1.0;"/><line style="stroke:#181818;stroke-width:1.0;" x1="259" x2="442" y1="1532.6387" y2="1532.6387"/><text fill="#000000" font-family="sans-serif" font-size="13" lengthAdjust="spacing" textLength="170" x="271" y="1527.376">confirm order of selected tiles</text><polygon fill="#181818" points="43,1559.9297,33,1563.9297,43,1567.9297,39,1563.9297" style="stroke:#181818;stroke-width:1.0;"/><line style="stroke:#181818;stroke-width:1.0;" x1="37" x2="243" y1="1563.9297" y2="1563.9297"/><text fill="#000000" font-family="sans-serif" font-size="13" lengthAdjust="spacing" textLength="188" x="49" y="1558.667">insert tiles (picked tiles, column)</text><line style="stroke:#181818;stroke-width:1.0;" x1="254" x2="296" y1="1595.2207" y2="1595.2207"/><line style="stroke:#181818;stroke-width:1.0;" x1="296" x2="296" y1="1595.2207" y2="1608.2207"/><line style="stroke:#181818;stroke-width:1.0;" x1="255" x2="296" y1="1608.2207" y2="1608.2207"/><polygon fill="#181818" points="265,1604.2207,255,1608.2207,265,1612.2207,261,1608.2207" style="stroke:#181818;stroke-width:1.0;"/><text fill="#000000" font-family="sans-serif" font-size="13" lengthAdjust="spacing" textLength="78" x="261" y="1589.958">update points</text><polygon fill="#181818" points="43,1635.5117,33,1639.5117,43,1643.5117,39,1639.5117" style="stroke:#181818;stroke-width:1.0;"/><line style="stroke:#181818;stroke-width:1.0;" x1="37" x2="243" y1="1639.5117" y2="1639.5117"/><text fill="#000000" font-family="sans-serif" font-size="13" lengthAdjust="spacing" textLength="147" x="49" y="1634.249">check bookshelf for goals</text><line style="stroke:#181818;stroke-width:1.0;" x1="254" x2="296" y1="1670.8027" y2="1670.8027"/><line style="stroke:#181818;stroke-width:1.0;" x1="296" x2="296" y1="1670.8027" y2="1683.8027"/><line style="stroke:#181818;stroke-width:1.0;" x1="255" x2="296" y1="1683.8027" y2="1683.8027"/><polygon fill="#181818" points="265,1679.8027,255,1683.8027,265,1687.8027,261,1683.8027" style="stroke:#181818;stroke-width:1.0;"/><text fill="#000000" font-family="sans-serif" font-size="13" lengthAdjust="spacing" textLength="47" x="261" y="1665.54">end turn</text><path d="M59,1698.8027 L120,1698.8027 L120,1708.0938 L110,1718.0938 L59,1718.0938 L59,1698.8027 " fill="#EEEEEE" style="stroke:#000000;stroke-width:1.5;"/><rect fill="none" height="50.582" style="stroke:#000000;stroke-width:1.5;" width="226" x="59" y="1698.8027"/><text fill="#000000" font-family="sans-serif" font-size="13" font-weight="bold" lengthAdjust="spacing" textLength="16" x="74" y="1713.8311">alt</text><text fill="#000000" font-family="sans-serif" font-size="11" font-weight="bold" lengthAdjust="spacing" textLength="136" x="135" y="1712.6729">[board has to be refilled]</text><polygon fill="#181818" points="106,1737.3848,96,1741.3848,106,1745.3848,102,1741.3848" style="stroke:#181818;stroke-width:1.0;"/><line style="stroke:#181818;stroke-width:1.0;" x1="100" x2="243" y1="1741.3848" y2="1741.3848"/><text fill="#000000" font-family="sans-serif" font-size="13" lengthAdjust="spacing" textLength="59" x="112" y="1736.1221">refill board</text><polygon fill="#181818" points="260,1775.6758,250,1779.6758,260,1783.6758,256,1779.6758" style="stroke:#181818;stroke-width:1.0;"/><line style="stroke:#181818;stroke-width:1.0;" x1="254" x2="442" y1="1779.6758" y2="1779.6758"/><text fill="#000000" font-family="sans-serif" font-size="13" lengthAdjust="spacing" textLength="140" x="266" y="1774.4131">get current player points</text><polygon fill="#181818" points="431,1806.9668,441,1810.9668,431,1814.9668,435,1810.9668" style="stroke:#181818;stroke-width:1.0;"/><line style="stroke:#181818;stroke-width:1.0;" x1="249" x2="437" y1="1810.9668" y2="1810.9668"/><text fill="#000000" font-family="sans-serif" font-size="13" lengthAdjust="spacing" textLength="118" x="256" y="1805.7041">current player points</text><path d="M383.5,1825.9668 L456.5,1825.9668 L456.5,1835.2578 L446.5,1845.2578 L383.5,1845.2578 L383.5,1825.9668 " fill="#EEEEEE" style="stroke:#000000;stroke-width:1.5;"/><rect fill="none" height="313.9102" style="stroke:#000000;stroke-width:1.5;" width="702.5" x="383.5" y="1825.9668"/><text fill="#000000" font-family="sans-serif" font-size="13" font-weight="bold" lengthAdjust="spacing" textLength="28" x="398.5" y="1840.9951">loop</text><text fill="#000000" font-family="sans-serif" font-size="11" font-weight="bold" lengthAdjust="spacing" textLength="92" x="471.5" y="1839.8369">[over all players]</text><polygon fill="#181818" points="601,1864.5488,611,1868.5488,601,1872.5488,605,1868.5488" style="stroke:#181818;stroke-width:1.0;"/><line style="stroke:#181818;stroke-width:1.0;" x1="443" x2="607" y1="1868.5488" y2="1868.5488"/><text fill="#000000" font-family="sans-serif" font-size="13" lengthAdjust="spacing" textLength="81" x="450" y="1863.2861">EndTurnNotify</text><polygon fill="#181818" points="813,1895.8398,823,1899.8398,813,1903.8398,817,1899.8398" style="stroke:#181818;stroke-width:1.0;"/><line style="stroke:#181818;stroke-width:1.0;" x1="613" x2="819" y1="1899.8398" y2="1899.8398"/><text fill="#000000" font-family="sans-serif" font-size="13" lengthAdjust="spacing" textLength="123" x="620" y="1894.5771">handle EndTurnNotify</text><polygon fill="#181818" points="965,1927.1309,975,1931.1309,965,1935.1309,969,1931.1309" style="stroke:#181818;stroke-width:1.0;"/><line style="stroke:#181818;stroke-width:1.0;" x1="825" x2="971" y1="1931.1309" y2="1931.1309"/><text fill="#000000" font-family="sans-serif" font-size="13" lengthAdjust="spacing" textLength="75" x="832" y="1925.8682">update board</text><polygon fill="#181818" points="965,1958.4219,975,1962.4219,965,1966.4219,969,1962.4219" style="stroke:#181818;stroke-width:1.0;"/><line style="stroke:#181818;stroke-width:1.0;" x1="825" x2="971" y1="1962.4219" y2="1962.4219"/><text fill="#000000" font-family="sans-serif" font-size="13" lengthAdjust="spacing" textLength="98" x="832" y="1957.1592">update bookshelf</text><polygon fill="#181818" points="965,1989.7129,975,1993.7129,965,1997.7129,969,1993.7129" style="stroke:#181818;stroke-width:1.0;"/><line style="stroke:#181818;stroke-width:1.0;" x1="825" x2="971" y1="1993.7129" y2="1993.7129"/><text fill="#000000" font-family="sans-serif" font-size="13" lengthAdjust="spacing" textLength="78" x="832" y="1988.4502">update points</text><polygon fill="#181818" points="965,2021.0039,975,2025.0039,965,2029.0039,969,2025.0039" style="stroke:#181818;stroke-width:1.0;"/><line style="stroke:#181818;stroke-width:1.0;" x1="825" x2="971" y1="2025.0039" y2="2025.0039"/><text fill="#000000" font-family="sans-serif" font-size="13" lengthAdjust="spacing" textLength="128" x="832" y="2019.7412">update common goals</text><polygon fill="#181818" points="965,2052.2949,975,2056.2949,965,2060.2949,969,2056.2949" style="stroke:#181818;stroke-width:1.0;"/><line style="stroke:#181818;stroke-width:1.0;" x1="825" x2="971" y1="2056.2949" y2="2056.2949"/><text fill="#000000" font-family="sans-serif" font-size="13" lengthAdjust="spacing" textLength="47" x="832" y="2051.0322">end turn</text><polygon fill="#181818" points="965,2083.5859,975,2087.5859,965,2091.5859,969,2087.5859" style="stroke:#181818;stroke-width:1.0;"/><line style="stroke:#181818;stroke-width:1.0;" x1="825" x2="971" y1="2087.5859" y2="2087.5859"/><text fill="#000000" font-family="sans-serif" font-size="13" lengthAdjust="spacing" textLength="79" x="832" y="2082.3232">start new turn</text><line style="stroke:#181818;stroke-width:1.0;" x1="977" x2="1019" y1="2118.877" y2="2118.877"/><line style="stroke:#181818;stroke-width:1.0;" x1="1019" x2="1019" y1="2118.877" y2="2131.877"/><line style="stroke:#181818;stroke-width:1.0;" x1="978" x2="1019" y1="2131.877" y2="2131.877"/><polygon fill="#181818" points="988,2127.877,978,2131.877,988,2135.877,984,2131.877" style="stroke:#181818;stroke-width:1.0;"/><text fill="#000000" font-family="sans-serif" font-size="13" lengthAdjust="spacing" textLength="90" x="984" y="2113.6143">show pick a tile</text><!--SRC=[bLPDSzmW3BtxLt1hEzDqxpxqq9rESsepRQPtrfRNJ32YW3UJVr-1yVeJs_4HtWD9xqduG-sSjldff2LNhctabmARauL_BQW27ah1huOtcUR6YK9emh0doT_0J9Q-8JVbPEK7Ro3BpbA0SezSbH8CU_ZAkeKyRFznXF-9JbHl4JWWpgYSGKcidDM1dg0CG4_-A-0rPnOSqo58kuNoPx6hZzClZ3PgV6LQ52-CCoSafI4HTSRewu7B83qUoWxlaMltzibRK2Lx8i8peN_xKbit8WtGMBXy0poghIzG5yWGXb_pUq6Wd5sfClUzi3OG5vnP33SkHHcENx- -psw8rMfK5bOpMz5tmGj4BbsNah1T164rLU6HWBDmjncjBhc3iOWsi41Qk5-lqBql1A5cGP3ksSH72SC5NDfh1QfAc6OQxgxXpXtBbxctKT9lIUp2RgknX8PX5HgIJowhEZEbWGPlm2g33Rk4GHBotxNXx3g7tMsnyJSzEidlVJRTfcwOQvJQZc-A6f5yLw1i6xNbWvfWgiSTDS0vm8zQO0sTD46CP5EvIRHfQVfxOuMF2xDAt9aICQRC3nlxohNlTetMYelS4pUS4ZZ1YmnDIM_ZJWEFeKTb- -NHYTToBjeIcvGi1C6mehia56xeALuuSVE-3IzvBsdtzkSqsYmO5nFvEEx6px6Qd-wSxi9-nA9GpYxEAsgWyNT1VB4ro2hCZYjoQMUd-8AuraIjGakH_jOt_mLeabI2QbYkJnc_j-p2HMNy6rcqnlWATyEa3xg4QL5IHbzdTrEA9fqvFgU-g_APierI7fnGATBkR3e8ZHeTWyVa3s7fpxD15NNVPjnziDETuHzFKH_UmKUUtkm_]--></g></svg>